<svg width="24" height="24" viewBox="0 0 24 24" fill="none" xmlns="http://www.w3.org/2000/svg">
<path d="M13.3333 24H8V8H13.3333V10.6667C14.4702 9.22034 16.1942 8.3581 18.0333 8.316C21.3408 8.33436 24.0096 11.0258 24 14.3333V24H18.6667V15C18.4534 13.5102 17.1757 12.4048 15.6707 12.408C15.0124 12.4288 14.391 12.717 13.9499 13.2062C13.5089 13.6953 13.2862 14.3431 13.3333 15V24ZM5.33333 24H0V8H5.33333V24ZM2.66667 5.33333C1.19391 5.33333 0 4.13943 0 2.66667C0 1.19391 1.19391 0 2.66667 0C4.13943 0 5.33333 1.19391 5.33333 2.66667C5.33333 3.37391 5.05238 4.05219 4.55229 4.55229C4.05219 5.05238 3.37391 5.33333 2.66667 5.33333Z" fill="white"/>
</svg>
