<svg width="22" height="25" viewBox="0 0 22 25" fill="none" xmlns="http://www.w3.org/2000/svg">
<path d="M20.1358 10.9035C20.6881 10.9035 21.1358 11.3512 21.1358 11.9035V22.3819C21.1358 23.1464 20.3129 23.6281 19.6463 23.254L11.0574 18.4328C10.7534 18.2621 10.3824 18.2621 10.0784 18.4328L1.48948 23.254C0.822888 23.6281 0 23.1464 0 22.3819V11.9035C0 11.3512 0.447715 10.9035 1 10.9035H20.1358Z" fill="white"/>
<path d="M21.1895 7.19113C21.1895 7.74342 20.7417 8.19113 20.1895 8.19113H1.02683C0.474547 8.19113 0.0268305 7.74342 0.0268305 7.19113V6.39787C0.0268305 5.84559 0.474546 5.39787 1.02683 5.39787H20.1895C20.7417 5.39787 21.1895 5.84559 21.1895 6.39787V7.19113Z" fill="white"/>
<path d="M21.1895 1.73918C21.1895 2.29147 20.7417 2.73918 20.1895 2.73918H1.02683C0.474547 2.73918 0.0268305 2.29147 0.0268305 1.73918V1C0.0268305 0.447716 0.474546 0 1.02683 0H20.1895C20.7417 0 21.1895 0.447715 21.1895 1V1.73918Z" fill="white"/>
</svg>
