<svg width="41" height="24" viewBox="0 0 41 24" fill="none" xmlns="http://www.w3.org/2000/svg">
<path d="M29.4336 0C30.0541 0 30.5729 0.472895 30.6299 1.09082L31.3535 8.94629L38.4424 5.68164C39.0058 5.42231 39.674 5.63497 39.9844 6.17188C40.2991 6.71701 40.1399 7.41315 39.6191 7.7666L33.2568 12.0801L39.6191 16.3936C40.1401 16.747 40.2991 17.4431 39.9844 17.9883C39.674 18.5254 39.0059 18.738 38.4424 18.4785L31.3398 15.2061L30.6299 22.9092C30.5729 23.5271 30.0541 24 29.4336 24C28.8044 23.9996 28.2819 23.5134 28.2363 22.8857L27.6865 15.2969L20.7637 18.6523C20.34 18.8575 19.8519 18.7918 19.501 18.5176C19.4682 18.5058 19.4355 18.4933 19.4033 18.4785L12.3008 15.207L11.5908 22.9092C11.5339 23.5271 11.0151 24 10.3945 24C9.76509 23.9998 9.24274 23.5136 9.19727 22.8857L8.64746 15.2969L1.72461 18.6523C1.15819 18.9268 0.476028 18.7178 0.161133 18.1729C-0.149125 17.6355 0.00123743 16.9501 0.507812 16.5918L6.88574 12.0791L0.507812 7.56934C0.00113989 7.21103 -0.14915 6.52571 0.161133 5.98828C0.475918 5.44325 1.15815 5.23351 1.72461 5.50781L8.63574 8.85645L9.19727 1.11426C9.24274 0.486415 9.76509 0.000199002 10.3945 0C11.0151 0 11.5339 0.472876 11.5908 1.09082L12.3145 8.94629L19.4033 5.68164C19.4356 5.6668 19.4681 5.65338 19.501 5.6416C19.8519 5.36774 20.3402 5.30288 20.7637 5.50781L27.6748 8.85645L28.2363 1.11426C28.2818 0.486555 28.8043 0.000415418 29.4336 0ZM14.2178 12.0801L20.1943 16.1318L25.9248 12.0791L20.1943 8.02734L14.2178 12.0801Z" fill="white"/>
</svg>
