<svg width="24" height="24" viewBox="0 0 24 24" fill="none" xmlns="http://www.w3.org/2000/svg">
<path d="M12.0007 24C7.14663 24.0063 2.76809 21.0841 0.911562 16.5991C-0.944961 12.114 0.0872042 6.95207 3.52564 3.52581C6.55145 0.489072 10.9688 -0.700253 15.1103 0.406783C19.2518 1.51382 22.4866 4.74861 23.5936 8.89008C24.7006 13.0315 23.5113 17.4489 20.4746 20.4747C18.2341 22.7343 15.1828 24.0037 12.0007 24ZM10.2206 15.9189C12.4279 15.8728 14.6036 16.4489 16.4989 17.5812C16.6157 17.6596 16.7533 17.7014 16.894 17.7014C17.1505 17.6949 17.3863 17.5594 17.521 17.341C17.6259 17.1387 17.6441 16.9024 17.5715 16.6864C17.5101 16.5222 17.3823 16.3913 17.2195 16.3261C15.0856 15.0568 12.6381 14.4121 10.1558 14.4656C8.61563 14.4773 7.08143 14.6582 5.58074 15.0049C5.18729 15.1097 4.94806 15.5079 5.04024 15.9045C5.13314 16.2246 5.41739 16.4516 5.7501 16.4714C5.81395 16.4712 5.87744 16.4619 5.93867 16.4438C7.34199 16.1099 8.77823 15.9338 10.2206 15.9189ZM9.99244 12.3444C12.6929 12.3126 15.353 13.0013 17.6988 14.3394C17.8325 14.4366 17.9936 14.4887 18.1588 14.4884C18.4825 14.4758 18.7806 14.3093 18.9612 14.0404C19.1022 13.8346 19.1461 13.5774 19.0813 13.3365C19.0374 13.1277 18.9062 12.9476 18.7209 12.8417C16.0685 11.3099 13.054 10.5173 9.99124 10.5463C8.37665 10.5364 6.76932 10.7631 5.22041 11.2189C4.74448 11.3756 4.4787 11.8816 4.61985 12.3624C4.73767 12.7509 5.10435 13.0097 5.50988 12.9906C5.59608 12.9914 5.68205 12.9813 5.76571 12.9606C7.13472 12.5398 8.56028 12.332 9.99244 12.3444ZM10.2194 8.63535C13.2991 8.54652 16.3499 9.24958 19.0801 10.6772C19.2641 10.7778 19.4709 10.8295 19.6806 10.8274C20.0531 10.8351 20.408 10.6696 20.6415 10.3794C20.7867 10.1137 20.8246 9.80247 20.7472 9.50976C20.6749 9.21772 20.4855 8.96836 20.2235 8.82032C17.1448 7.18398 13.6953 6.37136 10.2098 6.46133C8.27992 6.44147 6.35659 6.68967 4.49494 7.19882C3.97201 7.36053 3.6478 7.88241 3.7345 8.42286C3.8212 8.96331 4.29239 9.35757 4.83965 9.34761C4.94621 9.3477 5.05221 9.33232 5.15435 9.30197C6.80141 8.83498 8.50763 8.61002 10.2194 8.63415V8.63535Z" fill="white"/>
</svg>
