<svg width="25" height="24" viewBox="0 0 25 24" fill="none" xmlns="http://www.w3.org/2000/svg">
<path d="M12.3077 3.26793e-07C6.27167 -0.000774995 1.12626 4.37672 0.159856 10.3348C-0.80655 16.293 2.6914 22.0724 8.41819 23.9796C9.03498 24.0906 9.25579 23.7119 9.25579 23.3862C9.25579 23.0939 9.24592 22.3192 9.24222 21.2891C5.81903 22.0293 5.09615 19.6386 5.09615 19.6386C4.8708 18.8947 4.38632 18.2562 3.73058 17.8388C2.62036 17.0752 3.8157 17.0925 3.8157 17.0925C4.60602 17.2009 5.30161 17.6691 5.69937 18.3606C6.03606 18.9728 6.60329 19.4251 7.27503 19.6172C7.94677 19.8092 8.66739 19.725 9.27676 19.3832C9.33402 18.7591 9.61172 18.1757 10.0601 17.7377C7.32893 17.428 4.45716 16.3721 4.45716 11.6561C4.442 10.4363 4.89495 9.25715 5.72281 8.36121C5.34824 7.29948 5.39235 6.13491 5.84617 5.10456C5.84617 5.10456 6.87868 4.77272 9.22865 6.36404C11.2441 5.81141 13.3712 5.81141 15.3867 6.36404C17.7379 4.77149 18.7692 5.10456 18.7692 5.10456C19.2251 6.13442 19.2692 7.2998 18.8925 8.36121C19.7234 9.25707 20.176 10.4393 20.1557 11.661C20.1557 16.3893 17.2815 17.428 14.5404 17.7327C15.1317 18.3372 15.435 19.1666 15.3731 20.0099C15.3731 21.6555 15.3583 22.9828 15.3583 23.3862C15.3583 23.7156 15.5779 24.098 16.2058 23.9771C21.9302 22.0667 25.4244 16.2869 24.456 10.3304C23.4876 4.37385 18.3424 -0.00138059 12.3077 3.26793e-07Z" fill="white"/>
</svg>
